<svg width="20" height="20" viewBox="0 0 20 20" fill="none" xmlns="http://www.w3.org/2000/svg">
<path fill-rule="evenodd" clip-rule="evenodd" d="M10 15C9.65 15 9.3375 14.8625 9.1125 14.6375L4.1125 9.6375C3.8875 9.4125 3.75 9.1 3.75 8.75C3.75 8.0625 4.3125 7.5 5 7.5C5.35 7.5 5.6625 7.6375 5.8875 7.8625L8.75 10.7375V1.25C8.75 0.5625 9.3125 0 10 0C10.6875 0 11.25 0.5625 11.25 1.25V10.7375L14.1125 7.8625C14.3375 7.6375 14.65 7.5 15 7.5C15.6875 7.5 16.25 8.0625 16.25 8.75C16.25 9.1 16.1125 9.4125 15.8875 9.6375L10.8875 14.6375C10.6625 14.8625 10.35 15 10 15ZM17.5 15C17.5 14.3125 18.0625 13.75 18.75 13.75C19.4375 13.75 20 14.3125 20 15V18.75C20 19.4375 19.4375 20 18.75 20H1.25C0.5625 20 0 19.4375 0 18.75V15C0 14.3125 0.5625 13.75 1.25 13.75C1.9375 13.75 2.5 14.3125 2.5 15V17.5H17.5V15Z" fill="#6565FF"/>
</svg>
