<svg width="24" height="24" viewBox="0 0 24 24" fill="none" xmlns="http://www.w3.org/2000/svg">
<path d="M18.6667 10.6667C19.12 10.6667 19.56 10.72 20 10.7867V4.36L10 0L0 4.36V10.9067C0 16.96 4.26667 22.6267 10 24C10.7333 23.8267 11.44 23.5733 12.1333 23.2667C11.2133 21.96 10.6667 20.3733 10.6667 18.6667C10.6667 14.2533 14.2533 10.6667 18.6667 10.6667Z" fill="#FF8753"/>
<path d="M18.6668 13.3334C15.7202 13.3334 13.3335 15.72 13.3335 18.6667C13.3335 21.6134 15.7202 24 18.6668 24C21.6135 24 24.0002 21.6134 24.0002 18.6667C24.0002 15.72 21.6135 13.3334 18.6668 13.3334ZM18.6668 15.1734C19.4935 15.1734 20.1602 15.8534 20.1602 16.6667C20.1602 17.48 19.4802 18.16 18.6668 18.16C17.8535 18.16 17.1735 17.48 17.1735 16.6667C17.1735 15.8534 17.8402 15.1734 18.6668 15.1734ZM18.6668 22.3334C17.4268 22.3334 16.3468 21.72 15.6802 20.7734C15.7468 19.8134 17.6935 19.3334 18.6668 19.3334C19.6402 19.3334 21.5868 19.8134 21.6535 20.7734C20.9868 21.72 19.9068 22.3334 18.6668 22.3334Z" fill="#FF8753"/>
</svg>
