<svg width="24" height="24" viewBox="0 0 24 24" fill="none" xmlns="http://www.w3.org/2000/svg">
<path fill-rule="evenodd" clip-rule="evenodd" d="M15 1.50651H21C21.825 1.50651 22.5 2.18109 22.5 3.00557V4.50464H1.5V3.00557C1.5 2.18109 2.175 1.50651 3 1.50651H9C9 0.682025 9.675 0.00744629 10.5 0.00744629H13.5C14.325 0.00744629 15 0.682025 15 1.50651ZM21.75 6.0037H2.25C1.83 6.0037 1.5 6.33349 1.5 6.75323C1.5 7.17297 1.83 7.50276 2.25 7.50276H3V22.4934C3 23.3179 3.675 23.9925 4.5 23.9925H19.5C20.325 23.9925 21 23.3179 21 22.4934V7.50276H21.75C22.17 7.50276 22.5 7.17297 22.5 6.75323C22.5 6.33349 22.17 6.0037 21.75 6.0037ZM9 19.4953C9 20.3198 8.325 20.9943 7.5 20.9943C6.675 20.9943 6 20.3198 6 19.4953V10.5009C6 9.6764 6.675 9.00183 7.5 9.00183C8.325 9.00183 9 9.6764 9 10.5009V19.4953ZM12 20.9943C12.825 20.9943 13.5 20.3198 13.5 19.4953V10.5009C13.5 9.6764 12.825 9.00183 12 9.00183C11.175 9.00183 10.5 9.6764 10.5 10.5009V19.4953C10.5 20.3198 11.175 20.9943 12 20.9943ZM18 19.4953C18 20.3198 17.325 20.9943 16.5 20.9943C15.675 20.9943 15 20.3198 15 19.4953V10.5009C15 9.6764 15.675 9.00183 16.5 9.00183C17.325 9.00183 18 9.6764 18 10.5009V19.4953Z" fill="#B3B3FF"/>
</svg>
