<svg width="32" height="32" viewBox="0 0 32 32" fill="none" xmlns="http://www.w3.org/2000/svg">
<path fill-rule="evenodd" clip-rule="evenodd" d="M9.42 11.42C9.06 11.78 8.56 12 8 12C6.9 12 6 11.1 6 10C6 9.44 6.22 8.94 6.58 8.58L14.58 0.58C14.94 0.22 15.44 0 16 0C16.56 0 17.06 0.22 17.42 0.58L25.42 8.58C25.78 8.94 26 9.44 26 10C26 11.1 25.1 12 24 12C23.44 12 22.94 11.78 22.58 11.4L18 6.82V22C18 23.1 17.1 24 16 24C14.9 24 14 23.1 14 22V6.82L9.42 11.42ZM28 24C28 22.9 28.9 22 30 22C31.1 22 32 22.9 32 24V30C32 31.1 31.1 32 30 32H2C0.9 32 0 31.1 0 30V24C0 22.9 0.9 22 2 22C3.1 22 4 22.9 4 24V28H28V24Z" fill="#6565FF" fill-opacity="0.6"/>
</svg>
